G04 #@! TF.GenerationSoftware,KiCad,Pcbnew,(6.0.7)*
G04 #@! TF.CreationDate,2022-12-11T11:01:38+01:00*
G04 #@! TF.ProjectId,CT_Clamp,43545f43-6c61-46d7-902e-6b696361645f,rev?*
G04 #@! TF.SameCoordinates,Original*
G04 #@! TF.FileFunction,Copper,L2,Bot*
G04 #@! TF.FilePolarity,Positive*
%FSLAX46Y46*%
G04 Gerber Fmt 4.6, Leading zero omitted, Abs format (unit mm)*
G04 Created by KiCad (PCBNEW (6.0.7)) date 2022-12-11 11:01:38*
%MOMM*%
%LPD*%
G01*
G04 APERTURE LIST*
G04 Aperture macros list*
%AMRoundRect*
0 Rectangle with rounded corners*
0 $1 Rounding radius*
0 $2 $3 $4 $5 $6 $7 $8 $9 X,Y pos of 4 corners*
0 Add a 4 corners polygon primitive as box body*
4,1,4,$2,$3,$4,$5,$6,$7,$8,$9,$2,$3,0*
0 Add four circle primitives for the rounded corners*
1,1,$1+$1,$2,$3*
1,1,$1+$1,$4,$5*
1,1,$1+$1,$6,$7*
1,1,$1+$1,$8,$9*
0 Add four rect primitives between the rounded corners*
20,1,$1+$1,$2,$3,$4,$5,0*
20,1,$1+$1,$4,$5,$6,$7,0*
20,1,$1+$1,$6,$7,$8,$9,0*
20,1,$1+$1,$8,$9,$2,$3,0*%
G04 Aperture macros list end*
G04 #@! TA.AperFunction,ComponentPad*
%ADD10C,1.600000*%
G04 #@! TD*
G04 #@! TA.AperFunction,ComponentPad*
%ADD11O,1.600000X1.600000*%
G04 #@! TD*
G04 #@! TA.AperFunction,ComponentPad*
%ADD12R,2.000000X2.300000*%
G04 #@! TD*
G04 #@! TA.AperFunction,ComponentPad*
%ADD13C,2.300000*%
G04 #@! TD*
G04 #@! TA.AperFunction,ComponentPad*
%ADD14R,2.000000X2.000000*%
G04 #@! TD*
G04 #@! TA.AperFunction,ComponentPad*
%ADD15O,2.000000X1.600000*%
G04 #@! TD*
G04 #@! TA.AperFunction,ComponentPad*
%ADD16RoundRect,0.250000X-0.650000X-1.550000X0.650000X-1.550000X0.650000X1.550000X-0.650000X1.550000X0*%
G04 #@! TD*
G04 #@! TA.AperFunction,ComponentPad*
%ADD17C,1.700000*%
G04 #@! TD*
G04 #@! TA.AperFunction,ComponentPad*
%ADD18RoundRect,0.450000X-0.450000X-1.350000X0.450000X-1.350000X0.450000X1.350000X-0.450000X1.350000X0*%
G04 #@! TD*
G04 #@! TA.AperFunction,ComponentPad*
%ADD19R,1.600000X1.600000*%
G04 #@! TD*
G04 #@! TA.AperFunction,ComponentPad*
%ADD20RoundRect,0.250000X-0.750000X-1.550000X0.750000X-1.550000X0.750000X1.550000X-0.750000X1.550000X0*%
G04 #@! TD*
G04 #@! TA.AperFunction,ComponentPad*
%ADD21O,2.000000X3.600000*%
G04 #@! TD*
G04 #@! TA.AperFunction,ComponentPad*
%ADD22R,1.700000X1.700000*%
G04 #@! TD*
G04 #@! TA.AperFunction,ComponentPad*
%ADD23O,1.700000X1.700000*%
G04 #@! TD*
G04 #@! TA.AperFunction,ComponentPad*
%ADD24O,1.800000X3.600000*%
G04 #@! TD*
G04 #@! TA.AperFunction,Conductor*
%ADD25C,1.500000*%
G04 #@! TD*
G04 #@! TA.AperFunction,Conductor*
%ADD26C,2.500000*%
G04 #@! TD*
G04 APERTURE END LIST*
D10*
X128250000Y-98000000D03*
D11*
X128250000Y-87840000D03*
D10*
X127670000Y-82750000D03*
D11*
X137830000Y-82750000D03*
D12*
X158000000Y-103750000D03*
D13*
X163000000Y-103750000D03*
X152800000Y-74350000D03*
X168200000Y-74350000D03*
D14*
X124380225Y-80110000D03*
D15*
X124380225Y-82650000D03*
X124380225Y-85190000D03*
X124380225Y-87730000D03*
X124380225Y-90270000D03*
X124380225Y-92810000D03*
X124380225Y-95350000D03*
X124380225Y-97890000D03*
X147240225Y-97890000D03*
X147240225Y-95350000D03*
X147240225Y-92810000D03*
X147240225Y-90270000D03*
X147240225Y-87730000D03*
X147240225Y-85190000D03*
X147240225Y-82650000D03*
X147240225Y-80110000D03*
D16*
X125750000Y-112750000D03*
D17*
X126750000Y-114223200D03*
X129250000Y-114223200D03*
D18*
X129250000Y-112750000D03*
D17*
X131750000Y-114223200D03*
D18*
X132750000Y-112750000D03*
D10*
X131750000Y-87920000D03*
D11*
X131750000Y-98080000D03*
D19*
X137750000Y-88000000D03*
D10*
X140250000Y-88000000D03*
D20*
X155500000Y-112750000D03*
D21*
X160500000Y-112750000D03*
X165500000Y-112750000D03*
D22*
X134625000Y-106250000D03*
D23*
X134625000Y-103710000D03*
X134625000Y-101170000D03*
D17*
X139250000Y-114274000D03*
D16*
X138750000Y-112750000D03*
D17*
X141750000Y-114223200D03*
D24*
X142250000Y-112750000D03*
D25*
X147240225Y-97890000D02*
X147240225Y-113759775D01*
X138500000Y-115500000D02*
X138500000Y-113000000D01*
X138500000Y-113000000D02*
X138750000Y-112750000D01*
X139250000Y-116250000D02*
X138500000Y-115500000D01*
X168200000Y-82800000D02*
X168200000Y-74350000D01*
X153110000Y-97890000D02*
X168200000Y-82800000D01*
X144750000Y-116250000D02*
X139250000Y-116250000D01*
X147240225Y-113759775D02*
X144750000Y-116250000D01*
X147240225Y-97890000D02*
X153110000Y-97890000D01*
D26*
X155500000Y-109750000D02*
X158000000Y-107250000D01*
X158000000Y-107250000D02*
X158000000Y-103750000D01*
X155500000Y-112750000D02*
X155500000Y-109750000D01*
X160500000Y-112750000D02*
X160500000Y-109750000D01*
X163000000Y-107250000D02*
X163000000Y-103750000D01*
X160500000Y-109750000D02*
X163000000Y-107250000D01*
G04 #@! TA.AperFunction,Conductor*
G36*
X157442121Y-72271302D02*
G01*
X157488614Y-72324958D01*
X157500000Y-72377300D01*
X157500000Y-91324651D01*
X157479998Y-91392772D01*
X157463095Y-91413746D01*
X152525046Y-96351795D01*
X152462734Y-96385821D01*
X152435951Y-96388700D01*
X147865513Y-96388700D01*
X147834176Y-96384741D01*
X147832065Y-96384199D01*
X147827273Y-96382549D01*
X147581281Y-96340058D01*
X147577322Y-96339878D01*
X147577320Y-96339878D01*
X147552794Y-96338764D01*
X147552773Y-96338764D01*
X147551374Y-96338700D01*
X146977495Y-96338700D01*
X146974987Y-96338902D01*
X146974982Y-96338902D01*
X146916658Y-96343595D01*
X146791394Y-96353673D01*
X146786478Y-96354881D01*
X146786475Y-96354881D01*
X146681549Y-96380654D01*
X146548966Y-96413220D01*
X146544318Y-96415193D01*
X146544315Y-96415194D01*
X146323833Y-96508783D01*
X146323831Y-96508784D01*
X146319176Y-96510760D01*
X146107936Y-96643784D01*
X145920683Y-96808871D01*
X145762232Y-97001772D01*
X145636661Y-97217525D01*
X145547200Y-97450579D01*
X145496150Y-97694938D01*
X145484826Y-97944316D01*
X145513518Y-98192296D01*
X145581489Y-98432499D01*
X145583623Y-98437074D01*
X145583625Y-98437081D01*
X145684852Y-98654163D01*
X145686989Y-98658745D01*
X145689830Y-98662926D01*
X145689831Y-98662927D01*
X145717137Y-98703106D01*
X145738925Y-98773929D01*
X145738925Y-113085726D01*
X145718923Y-113153847D01*
X145702020Y-113174821D01*
X144165046Y-114711795D01*
X144102734Y-114745821D01*
X144075951Y-114748700D01*
X141126000Y-114748700D01*
X141057879Y-114728698D01*
X141011386Y-114675042D01*
X141000000Y-114622700D01*
X141000000Y-109750000D01*
X134126000Y-109750000D01*
X134057879Y-109729998D01*
X134011386Y-109676342D01*
X134000000Y-109624000D01*
X134000000Y-107977300D01*
X134020002Y-107909179D01*
X134073658Y-107862686D01*
X134126000Y-107851300D01*
X135510374Y-107851299D01*
X135524922Y-107851299D01*
X135528166Y-107850962D01*
X135528174Y-107850962D01*
X135574512Y-107846154D01*
X135629684Y-107840430D01*
X135795871Y-107784986D01*
X135802091Y-107781137D01*
X135802093Y-107781136D01*
X135938623Y-107696648D01*
X135938627Y-107696645D01*
X135944845Y-107692797D01*
X136068617Y-107568810D01*
X136072458Y-107562579D01*
X136156705Y-107425905D01*
X136156706Y-107425904D01*
X136160545Y-107419675D01*
X136215699Y-107253391D01*
X136226300Y-107149923D01*
X136226299Y-105350078D01*
X136215430Y-105245316D01*
X136159986Y-105079129D01*
X136156136Y-105072907D01*
X136071648Y-104936377D01*
X136071645Y-104936373D01*
X136067797Y-104930155D01*
X136050030Y-104912418D01*
X135944293Y-104806865D01*
X135910214Y-104744582D01*
X135915217Y-104673762D01*
X135925879Y-104651857D01*
X136053590Y-104443453D01*
X136053596Y-104443442D01*
X136056181Y-104439223D01*
X136152636Y-104206359D01*
X136173131Y-104120992D01*
X136210321Y-103966086D01*
X136210322Y-103966080D01*
X136211476Y-103961273D01*
X136231252Y-103710000D01*
X136211476Y-103458727D01*
X136210322Y-103453920D01*
X136210321Y-103453914D01*
X136153791Y-103218453D01*
X136152636Y-103213641D01*
X136150742Y-103209068D01*
X136058076Y-102985351D01*
X136058074Y-102985347D01*
X136056181Y-102980777D01*
X135924485Y-102765869D01*
X135760792Y-102574208D01*
X135569131Y-102410515D01*
X135354223Y-102278819D01*
X135349653Y-102276926D01*
X135349649Y-102276924D01*
X135125932Y-102184258D01*
X135125930Y-102184257D01*
X135121359Y-102182364D01*
X135035992Y-102161869D01*
X134881086Y-102124679D01*
X134881080Y-102124678D01*
X134876273Y-102123524D01*
X134625000Y-102103748D01*
X134373727Y-102123524D01*
X134368920Y-102124678D01*
X134368914Y-102124679D01*
X134214008Y-102161869D01*
X134128641Y-102182364D01*
X134124070Y-102184257D01*
X134124068Y-102184258D01*
X133900351Y-102276924D01*
X133900347Y-102276926D01*
X133895777Y-102278819D01*
X133680869Y-102410515D01*
X133677104Y-102413731D01*
X133611442Y-102469811D01*
X133546652Y-102498842D01*
X133529612Y-102500000D01*
X130626000Y-102500000D01*
X130557879Y-102479998D01*
X130511386Y-102426342D01*
X130500000Y-102374000D01*
X130500000Y-92864316D01*
X145484826Y-92864316D01*
X145513518Y-93112296D01*
X145514897Y-93117170D01*
X145514898Y-93117174D01*
X145553657Y-93254145D01*
X145581489Y-93352499D01*
X145583623Y-93357074D01*
X145583625Y-93357081D01*
X145644138Y-93486851D01*
X145686989Y-93578745D01*
X145827305Y-93785213D01*
X145998826Y-93966591D01*
X146002852Y-93969669D01*
X146002853Y-93969670D01*
X146193119Y-94115140D01*
X146193123Y-94115143D01*
X146197139Y-94118213D01*
X146417143Y-94236178D01*
X146653177Y-94317451D01*
X146658160Y-94318312D01*
X146658161Y-94318312D01*
X146759223Y-94335769D01*
X146899169Y-94359942D01*
X146903128Y-94360122D01*
X146903130Y-94360122D01*
X146927656Y-94361236D01*
X146927677Y-94361236D01*
X146929076Y-94361300D01*
X147502955Y-94361300D01*
X147505463Y-94361098D01*
X147505468Y-94361098D01*
X147563792Y-94356405D01*
X147689056Y-94346327D01*
X147693972Y-94345119D01*
X147693975Y-94345119D01*
X147813321Y-94315804D01*
X147931484Y-94286780D01*
X147936132Y-94284807D01*
X147936135Y-94284806D01*
X148156617Y-94191217D01*
X148156619Y-94191216D01*
X148161274Y-94189240D01*
X148372514Y-94056216D01*
X148376307Y-94052872D01*
X148555971Y-93894476D01*
X148555973Y-93894474D01*
X148559767Y-93891129D01*
X148718218Y-93698228D01*
X148843789Y-93482475D01*
X148933250Y-93249421D01*
X148934285Y-93244468D01*
X148983266Y-93010013D01*
X148983267Y-93010009D01*
X148984300Y-93005062D01*
X148995624Y-92755684D01*
X148966932Y-92507704D01*
X148928130Y-92370579D01*
X148900339Y-92272370D01*
X148900338Y-92272368D01*
X148898961Y-92267501D01*
X148896827Y-92262926D01*
X148896825Y-92262919D01*
X148795598Y-92045837D01*
X148795596Y-92045833D01*
X148793461Y-92041255D01*
X148653145Y-91834787D01*
X148481624Y-91653409D01*
X148461706Y-91638180D01*
X148419740Y-91580917D01*
X148415395Y-91510054D01*
X148454912Y-91443572D01*
X148555966Y-91354481D01*
X148555972Y-91354475D01*
X148559767Y-91351129D01*
X148718218Y-91158228D01*
X148843789Y-90942475D01*
X148933250Y-90709421D01*
X148934285Y-90704468D01*
X148983266Y-90470013D01*
X148983267Y-90470009D01*
X148984300Y-90465062D01*
X148995624Y-90215684D01*
X148966932Y-89967704D01*
X148928130Y-89830579D01*
X148900339Y-89732370D01*
X148900338Y-89732368D01*
X148898961Y-89727501D01*
X148896827Y-89722926D01*
X148896825Y-89722919D01*
X148795598Y-89505837D01*
X148795596Y-89505833D01*
X148793461Y-89501255D01*
X148782785Y-89485545D01*
X148655993Y-89298978D01*
X148653145Y-89294787D01*
X148493441Y-89125905D01*
X148485106Y-89117091D01*
X148485105Y-89117090D01*
X148481624Y-89113409D01*
X148461706Y-89098180D01*
X148419740Y-89040917D01*
X148415395Y-88970054D01*
X148454912Y-88903572D01*
X148555966Y-88814481D01*
X148555972Y-88814475D01*
X148559767Y-88811129D01*
X148718218Y-88618228D01*
X148843789Y-88402475D01*
X148933250Y-88169421D01*
X148935533Y-88158493D01*
X148983266Y-87930013D01*
X148983267Y-87930009D01*
X148984300Y-87925062D01*
X148995624Y-87675684D01*
X148966932Y-87427704D01*
X148928130Y-87290579D01*
X148900339Y-87192370D01*
X148900338Y-87192368D01*
X148898961Y-87187501D01*
X148896827Y-87182926D01*
X148896825Y-87182919D01*
X148795598Y-86965837D01*
X148795596Y-86965833D01*
X148793461Y-86961255D01*
X148653145Y-86754787D01*
X148517696Y-86611554D01*
X148485106Y-86577091D01*
X148485105Y-86577090D01*
X148481624Y-86573409D01*
X148461706Y-86558180D01*
X148419740Y-86500917D01*
X148415395Y-86430054D01*
X148454912Y-86363572D01*
X148555966Y-86274481D01*
X148555972Y-86274475D01*
X148559767Y-86271129D01*
X148718218Y-86078228D01*
X148843789Y-85862475D01*
X148933250Y-85629421D01*
X148934285Y-85624468D01*
X148983266Y-85390013D01*
X148983267Y-85390009D01*
X148984300Y-85385062D01*
X148995624Y-85135684D01*
X148966932Y-84887704D01*
X148928130Y-84750579D01*
X148900339Y-84652370D01*
X148900338Y-84652368D01*
X148898961Y-84647501D01*
X148896827Y-84642926D01*
X148896825Y-84642919D01*
X148795598Y-84425837D01*
X148795596Y-84425833D01*
X148793461Y-84421255D01*
X148653145Y-84214787D01*
X148481624Y-84033409D01*
X148461706Y-84018180D01*
X148419740Y-83960917D01*
X148415395Y-83890054D01*
X148454912Y-83823572D01*
X148555966Y-83734481D01*
X148555972Y-83734475D01*
X148559767Y-83731129D01*
X148718218Y-83538228D01*
X148843789Y-83322475D01*
X148933250Y-83089421D01*
X148953180Y-82994023D01*
X148983266Y-82850013D01*
X148983267Y-82850009D01*
X148984300Y-82845062D01*
X148995624Y-82595684D01*
X148985885Y-82511507D01*
X148967514Y-82352737D01*
X148966932Y-82347704D01*
X148944701Y-82269140D01*
X148900339Y-82112370D01*
X148900338Y-82112368D01*
X148898961Y-82107501D01*
X148896827Y-82102926D01*
X148896825Y-82102919D01*
X148795598Y-81885837D01*
X148795596Y-81885833D01*
X148793461Y-81881255D01*
X148653145Y-81674787D01*
X148481624Y-81493409D01*
X148461706Y-81478180D01*
X148419740Y-81420917D01*
X148415395Y-81350054D01*
X148454912Y-81283572D01*
X148555966Y-81194481D01*
X148555972Y-81194475D01*
X148559767Y-81191129D01*
X148718218Y-80998228D01*
X148843789Y-80782475D01*
X148933250Y-80549421D01*
X148934285Y-80544468D01*
X148983266Y-80310013D01*
X148983267Y-80310009D01*
X148984300Y-80305062D01*
X148995624Y-80055684D01*
X148966932Y-79807704D01*
X148928130Y-79670579D01*
X148900339Y-79572370D01*
X148900338Y-79572368D01*
X148898961Y-79567501D01*
X148896827Y-79562926D01*
X148896825Y-79562919D01*
X148795598Y-79345837D01*
X148795596Y-79345833D01*
X148793461Y-79341255D01*
X148653145Y-79134787D01*
X148481624Y-78953409D01*
X148477597Y-78950330D01*
X148287331Y-78804860D01*
X148287327Y-78804857D01*
X148283311Y-78801787D01*
X148063307Y-78683822D01*
X147827273Y-78602549D01*
X147822290Y-78601688D01*
X147822289Y-78601688D01*
X147660102Y-78573673D01*
X147581281Y-78560058D01*
X147577322Y-78559878D01*
X147577320Y-78559878D01*
X147552794Y-78558764D01*
X147552773Y-78558764D01*
X147551374Y-78558700D01*
X146977495Y-78558700D01*
X146974987Y-78558902D01*
X146974982Y-78558902D01*
X146916658Y-78563595D01*
X146791394Y-78573673D01*
X146786478Y-78574881D01*
X146786475Y-78574881D01*
X146681549Y-78600654D01*
X146548966Y-78633220D01*
X146544318Y-78635193D01*
X146544315Y-78635194D01*
X146323833Y-78728783D01*
X146323831Y-78728784D01*
X146319176Y-78730760D01*
X146107936Y-78863784D01*
X146104143Y-78867128D01*
X146009770Y-78950330D01*
X145920683Y-79028871D01*
X145762232Y-79221772D01*
X145636661Y-79437525D01*
X145547200Y-79670579D01*
X145546166Y-79675529D01*
X145546165Y-79675532D01*
X145518553Y-79807704D01*
X145496150Y-79914938D01*
X145484826Y-80164316D01*
X145513518Y-80412296D01*
X145514897Y-80417170D01*
X145514898Y-80417174D01*
X145553657Y-80554145D01*
X145581489Y-80652499D01*
X145583623Y-80657074D01*
X145583625Y-80657081D01*
X145644138Y-80786851D01*
X145686989Y-80878745D01*
X145827305Y-81085213D01*
X145998826Y-81266591D01*
X146018744Y-81281820D01*
X146060710Y-81339083D01*
X146065055Y-81409946D01*
X146025538Y-81476428D01*
X145924484Y-81565519D01*
X145924478Y-81565525D01*
X145920683Y-81568871D01*
X145762232Y-81761772D01*
X145636661Y-81977525D01*
X145547200Y-82210579D01*
X145546166Y-82215529D01*
X145546165Y-82215532D01*
X145518553Y-82347704D01*
X145496150Y-82454938D01*
X145484826Y-82704316D01*
X145513518Y-82952296D01*
X145514897Y-82957170D01*
X145514898Y-82957174D01*
X145553657Y-83094145D01*
X145581489Y-83192499D01*
X145583623Y-83197074D01*
X145583625Y-83197081D01*
X145644138Y-83326851D01*
X145686989Y-83418745D01*
X145827305Y-83625213D01*
X145998826Y-83806591D01*
X146018744Y-83821820D01*
X146060710Y-83879083D01*
X146065055Y-83949946D01*
X146025538Y-84016428D01*
X145924484Y-84105519D01*
X145924478Y-84105525D01*
X145920683Y-84108871D01*
X145762232Y-84301772D01*
X145636661Y-84517525D01*
X145547200Y-84750579D01*
X145546166Y-84755529D01*
X145546165Y-84755532D01*
X145518553Y-84887704D01*
X145496150Y-84994938D01*
X145484826Y-85244316D01*
X145513518Y-85492296D01*
X145514897Y-85497170D01*
X145514898Y-85497174D01*
X145553657Y-85634145D01*
X145581489Y-85732499D01*
X145583623Y-85737074D01*
X145583625Y-85737081D01*
X145644138Y-85866851D01*
X145686989Y-85958745D01*
X145827305Y-86165213D01*
X145998826Y-86346591D01*
X146018744Y-86361820D01*
X146060710Y-86419083D01*
X146065055Y-86489946D01*
X146025538Y-86556428D01*
X145924484Y-86645519D01*
X145924478Y-86645525D01*
X145920683Y-86648871D01*
X145762232Y-86841772D01*
X145636661Y-87057525D01*
X145547200Y-87290579D01*
X145546166Y-87295529D01*
X145546165Y-87295532D01*
X145516164Y-87439140D01*
X145496150Y-87534938D01*
X145484826Y-87784316D01*
X145513518Y-88032296D01*
X145514897Y-88037170D01*
X145514898Y-88037174D01*
X145553657Y-88174145D01*
X145581489Y-88272499D01*
X145583623Y-88277074D01*
X145583625Y-88277081D01*
X145643477Y-88405433D01*
X145686989Y-88498745D01*
X145827305Y-88705213D01*
X145998826Y-88886591D01*
X146018744Y-88901820D01*
X146060710Y-88959083D01*
X146065055Y-89029946D01*
X146025538Y-89096428D01*
X145924484Y-89185519D01*
X145924478Y-89185525D01*
X145920683Y-89188871D01*
X145762232Y-89381772D01*
X145636661Y-89597525D01*
X145547200Y-89830579D01*
X145546166Y-89835529D01*
X145546165Y-89835532D01*
X145518553Y-89967704D01*
X145496150Y-90074938D01*
X145484826Y-90324316D01*
X145513518Y-90572296D01*
X145514897Y-90577170D01*
X145514898Y-90577174D01*
X145553657Y-90714145D01*
X145581489Y-90812499D01*
X145583623Y-90817074D01*
X145583625Y-90817081D01*
X145644138Y-90946851D01*
X145686989Y-91038745D01*
X145827305Y-91245213D01*
X145998826Y-91426591D01*
X146018744Y-91441820D01*
X146060710Y-91499083D01*
X146065055Y-91569946D01*
X146025538Y-91636428D01*
X145924484Y-91725519D01*
X145924478Y-91725525D01*
X145920683Y-91728871D01*
X145762232Y-91921772D01*
X145636661Y-92137525D01*
X145547200Y-92370579D01*
X145546166Y-92375529D01*
X145546165Y-92375532D01*
X145518553Y-92507704D01*
X145496150Y-92614938D01*
X145484826Y-92864316D01*
X130500000Y-92864316D01*
X130500000Y-89165809D01*
X130520002Y-89097688D01*
X130573658Y-89051195D01*
X130643932Y-89041091D01*
X130707831Y-89069998D01*
X130835349Y-89178909D01*
X131043547Y-89306493D01*
X131048117Y-89308386D01*
X131048121Y-89308388D01*
X131264567Y-89398042D01*
X131269140Y-89399936D01*
X131352500Y-89419949D01*
X131501760Y-89455784D01*
X131501766Y-89455785D01*
X131506573Y-89456939D01*
X131750000Y-89476097D01*
X131993427Y-89456939D01*
X131998234Y-89455785D01*
X131998240Y-89455784D01*
X132147500Y-89419949D01*
X132230860Y-89399936D01*
X132235433Y-89398042D01*
X132451879Y-89308388D01*
X132451883Y-89308386D01*
X132456453Y-89306493D01*
X132664651Y-89178909D01*
X132668411Y-89175697D01*
X132668416Y-89175694D01*
X132846565Y-89023540D01*
X132850327Y-89020327D01*
X132961923Y-88889665D01*
X133005694Y-88838416D01*
X133005697Y-88838411D01*
X133008909Y-88834651D01*
X133136493Y-88626453D01*
X133227455Y-88406851D01*
X133228042Y-88405433D01*
X133228043Y-88405431D01*
X133229936Y-88400860D01*
X133285500Y-88169421D01*
X133285784Y-88168240D01*
X133285785Y-88168234D01*
X133286939Y-88163427D01*
X133306097Y-87920000D01*
X133286939Y-87676573D01*
X133285785Y-87671766D01*
X133285784Y-87671760D01*
X133231091Y-87443952D01*
X133229936Y-87439140D01*
X133170452Y-87295532D01*
X133138388Y-87218121D01*
X133138386Y-87218117D01*
X133136493Y-87213547D01*
X133097599Y-87150077D01*
X136198700Y-87150077D01*
X136198701Y-88849922D01*
X136209570Y-88954684D01*
X136265014Y-89120871D01*
X136268863Y-89127091D01*
X136268864Y-89127093D01*
X136353352Y-89263623D01*
X136353355Y-89263627D01*
X136357203Y-89269845D01*
X136481190Y-89393617D01*
X136487420Y-89397457D01*
X136487421Y-89397458D01*
X136582044Y-89455784D01*
X136630325Y-89485545D01*
X136796609Y-89540699D01*
X136803445Y-89541399D01*
X136803448Y-89541400D01*
X136855128Y-89546695D01*
X136900077Y-89551300D01*
X137743446Y-89551300D01*
X138599922Y-89551299D01*
X138603166Y-89550962D01*
X138603174Y-89550962D01*
X138649512Y-89546154D01*
X138704684Y-89540430D01*
X138870871Y-89484986D01*
X138877091Y-89481137D01*
X138877093Y-89481136D01*
X139013623Y-89396648D01*
X139013627Y-89396645D01*
X139019845Y-89392797D01*
X139143617Y-89268810D01*
X139147458Y-89262579D01*
X139231705Y-89125905D01*
X139231706Y-89125904D01*
X139235545Y-89119675D01*
X139290699Y-88953391D01*
X139301300Y-88849923D01*
X139301299Y-87150078D01*
X139290430Y-87045316D01*
X139234986Y-86879129D01*
X139209449Y-86837862D01*
X139146648Y-86736377D01*
X139146645Y-86736373D01*
X139142797Y-86730155D01*
X139018810Y-86606383D01*
X138971290Y-86577091D01*
X138875905Y-86518295D01*
X138875904Y-86518294D01*
X138869675Y-86514455D01*
X138703391Y-86459301D01*
X138696555Y-86458601D01*
X138696552Y-86458600D01*
X138644872Y-86453305D01*
X138599923Y-86448700D01*
X137756555Y-86448700D01*
X136900078Y-86448701D01*
X136896834Y-86449038D01*
X136896826Y-86449038D01*
X136850488Y-86453846D01*
X136795316Y-86459570D01*
X136629129Y-86515014D01*
X136622909Y-86518863D01*
X136622907Y-86518864D01*
X136486377Y-86603352D01*
X136486373Y-86603355D01*
X136480155Y-86607203D01*
X136356383Y-86731190D01*
X136352543Y-86737420D01*
X136352542Y-86737421D01*
X136269028Y-86872907D01*
X136264455Y-86880325D01*
X136209301Y-87046609D01*
X136208601Y-87053445D01*
X136208600Y-87053448D01*
X136207698Y-87062254D01*
X136198700Y-87150077D01*
X133097599Y-87150077D01*
X133008909Y-87005349D01*
X133005697Y-87001589D01*
X133005694Y-87001584D01*
X132853540Y-86823435D01*
X132850327Y-86819673D01*
X132740662Y-86726010D01*
X132668416Y-86664306D01*
X132668411Y-86664303D01*
X132664651Y-86661091D01*
X132456453Y-86533507D01*
X132451883Y-86531614D01*
X132451879Y-86531612D01*
X132235433Y-86441958D01*
X132235431Y-86441957D01*
X132230860Y-86440064D01*
X132143468Y-86419083D01*
X131998240Y-86384216D01*
X131998234Y-86384215D01*
X131993427Y-86383061D01*
X131750000Y-86363903D01*
X131506573Y-86383061D01*
X131501766Y-86384215D01*
X131501760Y-86384216D01*
X131356532Y-86419083D01*
X131269140Y-86440064D01*
X131264569Y-86441957D01*
X131264567Y-86441958D01*
X131048121Y-86531612D01*
X131048117Y-86531614D01*
X131043547Y-86533507D01*
X130835349Y-86661091D01*
X130831585Y-86664306D01*
X130831584Y-86664307D01*
X130707830Y-86770002D01*
X130643040Y-86799033D01*
X130572840Y-86788428D01*
X130519518Y-86741553D01*
X130500000Y-86674191D01*
X130500000Y-82750000D01*
X136273903Y-82750000D01*
X136293061Y-82993427D01*
X136294215Y-82998234D01*
X136294216Y-82998240D01*
X136314918Y-83084468D01*
X136350064Y-83230860D01*
X136443507Y-83456453D01*
X136571091Y-83664651D01*
X136574303Y-83668411D01*
X136574306Y-83668416D01*
X136627868Y-83731129D01*
X136729673Y-83850327D01*
X136733435Y-83853540D01*
X136911584Y-84005694D01*
X136911589Y-84005697D01*
X136915349Y-84008909D01*
X137123547Y-84136493D01*
X137128117Y-84138386D01*
X137128121Y-84138388D01*
X137344567Y-84228042D01*
X137349140Y-84229936D01*
X137432500Y-84249949D01*
X137581760Y-84285784D01*
X137581766Y-84285785D01*
X137586573Y-84286939D01*
X137830000Y-84306097D01*
X138073427Y-84286939D01*
X138078234Y-84285785D01*
X138078240Y-84285784D01*
X138227500Y-84249949D01*
X138310860Y-84229936D01*
X138315433Y-84228042D01*
X138531879Y-84138388D01*
X138531883Y-84138386D01*
X138536453Y-84136493D01*
X138744651Y-84008909D01*
X138748411Y-84005697D01*
X138748416Y-84005694D01*
X138926565Y-83853540D01*
X138930327Y-83850327D01*
X139032132Y-83731129D01*
X139085694Y-83668416D01*
X139085697Y-83668411D01*
X139088909Y-83664651D01*
X139216493Y-83456453D01*
X139309936Y-83230860D01*
X139345082Y-83084468D01*
X139365784Y-82998240D01*
X139365785Y-82998234D01*
X139366939Y-82993427D01*
X139386097Y-82750000D01*
X139366939Y-82506573D01*
X139365785Y-82501766D01*
X139365784Y-82501760D01*
X139311091Y-82273952D01*
X139309936Y-82269140D01*
X139287731Y-82215532D01*
X139218388Y-82048121D01*
X139218386Y-82048117D01*
X139216493Y-82043547D01*
X139088909Y-81835349D01*
X139085697Y-81831589D01*
X139085694Y-81831584D01*
X138933540Y-81653435D01*
X138930327Y-81649673D01*
X138835720Y-81568871D01*
X138748416Y-81494306D01*
X138748411Y-81494303D01*
X138744651Y-81491091D01*
X138536453Y-81363507D01*
X138531883Y-81361614D01*
X138531879Y-81361612D01*
X138315433Y-81271958D01*
X138315431Y-81271957D01*
X138310860Y-81270064D01*
X138227500Y-81250051D01*
X138078240Y-81214216D01*
X138078234Y-81214215D01*
X138073427Y-81213061D01*
X137830000Y-81193903D01*
X137586573Y-81213061D01*
X137581766Y-81214215D01*
X137581760Y-81214216D01*
X137432500Y-81250051D01*
X137349140Y-81270064D01*
X137344569Y-81271957D01*
X137344567Y-81271958D01*
X137128121Y-81361612D01*
X137128117Y-81361614D01*
X137123547Y-81363507D01*
X136915349Y-81491091D01*
X136911589Y-81494303D01*
X136911584Y-81494306D01*
X136824280Y-81568871D01*
X136729673Y-81649673D01*
X136726460Y-81653435D01*
X136574306Y-81831584D01*
X136574303Y-81831589D01*
X136571091Y-81835349D01*
X136443507Y-82043547D01*
X136441614Y-82048117D01*
X136441612Y-82048121D01*
X136372269Y-82215532D01*
X136350064Y-82269140D01*
X136348909Y-82273952D01*
X136294216Y-82501760D01*
X136294215Y-82501766D01*
X136293061Y-82506573D01*
X136273903Y-82750000D01*
X130500000Y-82750000D01*
X130500000Y-75042113D01*
X144894226Y-75042113D01*
X144919743Y-75309565D01*
X144983601Y-75570531D01*
X145084462Y-75819546D01*
X145220214Y-76051393D01*
X145388012Y-76261214D01*
X145584342Y-76444615D01*
X145805091Y-76597754D01*
X145809174Y-76599785D01*
X145809177Y-76599787D01*
X145924213Y-76657016D01*
X146045634Y-76717422D01*
X146049968Y-76718843D01*
X146049971Y-76718844D01*
X146296599Y-76799693D01*
X146296604Y-76799694D01*
X146300932Y-76801113D01*
X146305423Y-76801893D01*
X146305424Y-76801893D01*
X146561857Y-76846418D01*
X146561865Y-76846419D01*
X146565638Y-76847074D01*
X146569475Y-76847265D01*
X146648956Y-76851222D01*
X146648964Y-76851222D01*
X146650527Y-76851300D01*
X146818248Y-76851300D01*
X146820516Y-76851135D01*
X146820528Y-76851135D01*
X146949281Y-76841792D01*
X147017961Y-76836809D01*
X147022416Y-76835825D01*
X147022419Y-76835825D01*
X147275850Y-76779873D01*
X147275854Y-76779872D01*
X147280310Y-76778888D01*
X147405929Y-76731295D01*
X147527279Y-76685320D01*
X147527282Y-76685319D01*
X147531549Y-76683702D01*
X147766415Y-76553245D01*
X147912832Y-76441504D01*
X147976365Y-76393018D01*
X147976369Y-76393014D01*
X147979990Y-76390251D01*
X148167798Y-76198132D01*
X148170475Y-76194454D01*
X148170481Y-76194447D01*
X148323218Y-75984607D01*
X148323220Y-75984604D01*
X148325905Y-75980915D01*
X148451000Y-75743149D01*
X148540462Y-75489815D01*
X148592416Y-75226220D01*
X148592643Y-75221664D01*
X148605547Y-74962456D01*
X148605547Y-74962450D01*
X148605774Y-74957887D01*
X148580257Y-74690435D01*
X148516399Y-74429469D01*
X148415538Y-74180454D01*
X148279786Y-73948607D01*
X148111988Y-73738786D01*
X147915658Y-73555385D01*
X147694909Y-73402246D01*
X147690826Y-73400215D01*
X147690823Y-73400213D01*
X147518894Y-73314680D01*
X147454366Y-73282578D01*
X147450032Y-73281157D01*
X147450029Y-73281156D01*
X147203401Y-73200307D01*
X147203396Y-73200306D01*
X147199068Y-73198887D01*
X147194576Y-73198107D01*
X146938143Y-73153582D01*
X146938135Y-73153581D01*
X146934362Y-73152926D01*
X146924843Y-73152452D01*
X146851044Y-73148778D01*
X146851036Y-73148778D01*
X146849473Y-73148700D01*
X146681752Y-73148700D01*
X146679484Y-73148865D01*
X146679472Y-73148865D01*
X146550719Y-73158208D01*
X146482039Y-73163191D01*
X146477584Y-73164175D01*
X146477581Y-73164175D01*
X146224150Y-73220127D01*
X146224146Y-73220128D01*
X146219690Y-73221112D01*
X146094070Y-73268705D01*
X145972721Y-73314680D01*
X145972718Y-73314681D01*
X145968451Y-73316298D01*
X145733585Y-73446755D01*
X145729953Y-73449527D01*
X145523635Y-73606982D01*
X145523631Y-73606986D01*
X145520010Y-73609749D01*
X145332202Y-73801868D01*
X145329525Y-73805546D01*
X145329519Y-73805553D01*
X145176782Y-74015393D01*
X145174095Y-74019085D01*
X145049000Y-74256851D01*
X144959538Y-74510185D01*
X144907584Y-74773780D01*
X144907357Y-74778333D01*
X144907357Y-74778336D01*
X144898646Y-74953331D01*
X144894226Y-75042113D01*
X130500000Y-75042113D01*
X130500000Y-72377300D01*
X130520002Y-72309179D01*
X130573658Y-72262686D01*
X130626000Y-72251300D01*
X157374000Y-72251300D01*
X157442121Y-72271302D01*
G37*
G04 #@! TD.AperFunction*
G04 #@! TA.AperFunction,Conductor*
G36*
X139692121Y-110770002D02*
G01*
X139738614Y-110823658D01*
X139750000Y-110876000D01*
X139750000Y-116874000D01*
X139729998Y-116942121D01*
X139676342Y-116988614D01*
X139624000Y-117000000D01*
X137876000Y-117000000D01*
X137807879Y-116979998D01*
X137761386Y-116926342D01*
X137750000Y-116874000D01*
X137750000Y-110876000D01*
X137770002Y-110807879D01*
X137823658Y-110761386D01*
X137876000Y-110750000D01*
X139624000Y-110750000D01*
X139692121Y-110770002D01*
G37*
G04 #@! TD.AperFunction*
M02*
