%TF.GenerationSoftware,KiCad,Pcbnew,(6.0.7)*%
%TF.CreationDate,2022-12-11T11:01:54+01:00*%
%TF.ProjectId,CT_Clamp,43545f43-6c61-46d7-902e-6b696361645f,rev?*%
%TF.SameCoordinates,Original*%
%TF.FileFunction,Drillmap*%
%TF.FilePolarity,Positive*%
%FSLAX45Y45*%
G04 Gerber Fmt 4.5, Leading zero omitted, Abs format (unit mm)*
G04 Created by KiCad (PCBNEW (6.0.7)) date 2022-12-11 11:01:54*
%MOMM*%
%LPD*%
G01*
G04 APERTURE LIST*
%ADD10C,0.100000*%
%ADD11C,0.200000*%
%ADD12C,0.080000*%
%ADD13C,0.120000*%
%ADD14C,0.140000*%
G04 APERTURE END LIST*
D10*
X12175000Y-7150000D02*
X17175000Y-7150000D01*
X17175000Y-7150000D02*
X17175000Y-12250000D01*
X17175000Y-12250000D02*
X12175000Y-12250000D01*
X12175000Y-12250000D02*
X12175000Y-7150000D01*
D11*
D12*
X12727000Y-8235000D02*
X12807000Y-8315000D01*
X12807000Y-8235000D02*
X12727000Y-8315000D01*
X12785000Y-8744000D02*
X12865000Y-8824000D01*
X12865000Y-8744000D02*
X12785000Y-8824000D01*
X12785000Y-9760000D02*
X12865000Y-9840000D01*
X12865000Y-9760000D02*
X12785000Y-9840000D01*
X13135000Y-8752000D02*
X13215000Y-8832000D01*
X13215000Y-8752000D02*
X13135000Y-8832000D01*
X13135000Y-9768000D02*
X13215000Y-9848000D01*
X13215000Y-9768000D02*
X13135000Y-9848000D01*
X13735000Y-8760000D02*
X13815000Y-8840000D01*
X13815000Y-8760000D02*
X13735000Y-8840000D01*
X13743000Y-8235000D02*
X13823000Y-8315000D01*
X13823000Y-8235000D02*
X13743000Y-8315000D01*
X13985000Y-8760000D02*
X14065000Y-8840000D01*
X14065000Y-8760000D02*
X13985000Y-8840000D01*
D10*
X12488022Y-8011000D02*
G75*
G03*
X12488022Y-8011000I-50000J0D01*
G01*
X12488022Y-8265000D02*
G75*
G03*
X12488022Y-8265000I-50000J0D01*
G01*
X12488022Y-8519000D02*
G75*
G03*
X12488022Y-8519000I-50000J0D01*
G01*
X12488022Y-8773000D02*
G75*
G03*
X12488022Y-8773000I-50000J0D01*
G01*
X12488022Y-9027000D02*
G75*
G03*
X12488022Y-9027000I-50000J0D01*
G01*
X12488022Y-9281000D02*
G75*
G03*
X12488022Y-9281000I-50000J0D01*
G01*
X12488022Y-9535000D02*
G75*
G03*
X12488022Y-9535000I-50000J0D01*
G01*
X12488022Y-9789000D02*
G75*
G03*
X12488022Y-9789000I-50000J0D01*
G01*
X12725000Y-11422320D02*
G75*
G03*
X12725000Y-11422320I-50000J0D01*
G01*
X12975000Y-11422320D02*
G75*
G03*
X12975000Y-11422320I-50000J0D01*
G01*
X13225000Y-11422320D02*
G75*
G03*
X13225000Y-11422320I-50000J0D01*
G01*
X13512500Y-10117000D02*
G75*
G03*
X13512500Y-10117000I-50000J0D01*
G01*
X13512500Y-10371000D02*
G75*
G03*
X13512500Y-10371000I-50000J0D01*
G01*
X13512500Y-10625000D02*
G75*
G03*
X13512500Y-10625000I-50000J0D01*
G01*
X13975000Y-11427400D02*
G75*
G03*
X13975000Y-11427400I-50000J0D01*
G01*
X14225000Y-11422320D02*
G75*
G03*
X14225000Y-11422320I-50000J0D01*
G01*
X14774022Y-8011000D02*
G75*
G03*
X14774022Y-8011000I-50000J0D01*
G01*
X14774022Y-8265000D02*
G75*
G03*
X14774022Y-8265000I-50000J0D01*
G01*
X14774022Y-8519000D02*
G75*
G03*
X14774022Y-8519000I-50000J0D01*
G01*
X14774022Y-8773000D02*
G75*
G03*
X14774022Y-8773000I-50000J0D01*
G01*
X14774022Y-9027000D02*
G75*
G03*
X14774022Y-9027000I-50000J0D01*
G01*
X14774022Y-9281000D02*
G75*
G03*
X14774022Y-9281000I-50000J0D01*
G01*
X14774022Y-9535000D02*
G75*
G03*
X14774022Y-9535000I-50000J0D01*
G01*
X14774022Y-9789000D02*
G75*
G03*
X14774022Y-9789000I-50000J0D01*
G01*
X15330000Y-7435000D02*
G75*
G03*
X15330000Y-7435000I-50000J0D01*
G01*
X15850000Y-10375000D02*
G75*
G03*
X15850000Y-10375000I-50000J0D01*
G01*
X16350000Y-10375000D02*
G75*
G03*
X16350000Y-10375000I-50000J0D01*
G01*
X16870000Y-7435000D02*
G75*
G03*
X16870000Y-7435000I-50000J0D01*
G01*
D13*
X12575000Y-11215000D02*
X12575000Y-11335000D01*
X12515000Y-11275000D02*
X12635000Y-11275000D01*
X12925000Y-11215000D02*
X12925000Y-11335000D01*
X12865000Y-11275000D02*
X12985000Y-11275000D01*
X13275000Y-11215000D02*
X13275000Y-11335000D01*
X13215000Y-11275000D02*
X13335000Y-11275000D01*
X13875000Y-11215000D02*
X13875000Y-11335000D01*
X13815000Y-11275000D02*
X13935000Y-11275000D01*
X14225000Y-11215000D02*
X14225000Y-11335000D01*
X14165000Y-11275000D02*
X14285000Y-11275000D01*
D14*
X15599498Y-11324498D02*
X15599498Y-11225502D01*
X15500502Y-11225502D01*
X15500502Y-11324498D01*
X15599498Y-11324498D01*
X16099498Y-11324498D02*
X16099498Y-11225502D01*
X16000502Y-11225502D01*
X16000502Y-11324498D01*
X16099498Y-11324498D01*
X16599498Y-11324498D02*
X16599498Y-11225502D01*
X16500502Y-11225502D01*
X16500502Y-11324498D01*
X16599498Y-11324498D01*
D11*
X12427619Y-12565476D02*
X12427619Y-12365476D01*
X12475238Y-12365476D01*
X12503809Y-12375000D01*
X12522857Y-12394048D01*
X12532381Y-12413095D01*
X12541905Y-12451190D01*
X12541905Y-12479762D01*
X12532381Y-12517857D01*
X12522857Y-12536905D01*
X12503809Y-12555952D01*
X12475238Y-12565476D01*
X12427619Y-12565476D01*
X12627619Y-12565476D02*
X12627619Y-12432143D01*
X12627619Y-12470238D02*
X12637143Y-12451190D01*
X12646667Y-12441667D01*
X12665714Y-12432143D01*
X12684762Y-12432143D01*
X12751428Y-12565476D02*
X12751428Y-12432143D01*
X12751428Y-12365476D02*
X12741905Y-12375000D01*
X12751428Y-12384524D01*
X12760952Y-12375000D01*
X12751428Y-12365476D01*
X12751428Y-12384524D01*
X12875238Y-12565476D02*
X12856190Y-12555952D01*
X12846667Y-12536905D01*
X12846667Y-12365476D01*
X12980000Y-12565476D02*
X12960952Y-12555952D01*
X12951428Y-12536905D01*
X12951428Y-12365476D01*
X13208571Y-12565476D02*
X13208571Y-12365476D01*
X13275238Y-12508333D01*
X13341905Y-12365476D01*
X13341905Y-12565476D01*
X13522857Y-12565476D02*
X13522857Y-12460714D01*
X13513333Y-12441667D01*
X13494286Y-12432143D01*
X13456190Y-12432143D01*
X13437143Y-12441667D01*
X13522857Y-12555952D02*
X13503809Y-12565476D01*
X13456190Y-12565476D01*
X13437143Y-12555952D01*
X13427619Y-12536905D01*
X13427619Y-12517857D01*
X13437143Y-12498809D01*
X13456190Y-12489286D01*
X13503809Y-12489286D01*
X13522857Y-12479762D01*
X13618095Y-12432143D02*
X13618095Y-12632143D01*
X13618095Y-12441667D02*
X13637143Y-12432143D01*
X13675238Y-12432143D01*
X13694286Y-12441667D01*
X13703809Y-12451190D01*
X13713333Y-12470238D01*
X13713333Y-12527381D01*
X13703809Y-12546428D01*
X13694286Y-12555952D01*
X13675238Y-12565476D01*
X13637143Y-12565476D01*
X13618095Y-12555952D01*
X13799048Y-12546428D02*
X13808571Y-12555952D01*
X13799048Y-12565476D01*
X13789524Y-12555952D01*
X13799048Y-12546428D01*
X13799048Y-12565476D01*
X13799048Y-12441667D02*
X13808571Y-12451190D01*
X13799048Y-12460714D01*
X13789524Y-12451190D01*
X13799048Y-12441667D01*
X13799048Y-12460714D01*
D12*
X12090000Y-12855000D02*
X12170000Y-12935000D01*
X12170000Y-12855000D02*
X12090000Y-12935000D01*
D11*
X12465714Y-12785476D02*
X12484762Y-12785476D01*
X12503809Y-12795000D01*
X12513333Y-12804524D01*
X12522857Y-12823571D01*
X12532381Y-12861667D01*
X12532381Y-12909286D01*
X12522857Y-12947381D01*
X12513333Y-12966428D01*
X12503809Y-12975952D01*
X12484762Y-12985476D01*
X12465714Y-12985476D01*
X12446667Y-12975952D01*
X12437143Y-12966428D01*
X12427619Y-12947381D01*
X12418095Y-12909286D01*
X12418095Y-12861667D01*
X12427619Y-12823571D01*
X12437143Y-12804524D01*
X12446667Y-12795000D01*
X12465714Y-12785476D01*
X12618095Y-12966428D02*
X12627619Y-12975952D01*
X12618095Y-12985476D01*
X12608571Y-12975952D01*
X12618095Y-12966428D01*
X12618095Y-12985476D01*
X12741905Y-12871190D02*
X12722857Y-12861667D01*
X12713333Y-12852143D01*
X12703809Y-12833095D01*
X12703809Y-12823571D01*
X12713333Y-12804524D01*
X12722857Y-12795000D01*
X12741905Y-12785476D01*
X12780000Y-12785476D01*
X12799048Y-12795000D01*
X12808571Y-12804524D01*
X12818095Y-12823571D01*
X12818095Y-12833095D01*
X12808571Y-12852143D01*
X12799048Y-12861667D01*
X12780000Y-12871190D01*
X12741905Y-12871190D01*
X12722857Y-12880714D01*
X12713333Y-12890238D01*
X12703809Y-12909286D01*
X12703809Y-12947381D01*
X12713333Y-12966428D01*
X12722857Y-12975952D01*
X12741905Y-12985476D01*
X12780000Y-12985476D01*
X12799048Y-12975952D01*
X12808571Y-12966428D01*
X12818095Y-12947381D01*
X12818095Y-12909286D01*
X12808571Y-12890238D01*
X12799048Y-12880714D01*
X12780000Y-12871190D01*
X12941905Y-12785476D02*
X12960952Y-12785476D01*
X12980000Y-12795000D01*
X12989524Y-12804524D01*
X12999048Y-12823571D01*
X13008571Y-12861667D01*
X13008571Y-12909286D01*
X12999048Y-12947381D01*
X12989524Y-12966428D01*
X12980000Y-12975952D01*
X12960952Y-12985476D01*
X12941905Y-12985476D01*
X12922857Y-12975952D01*
X12913333Y-12966428D01*
X12903809Y-12947381D01*
X12894286Y-12909286D01*
X12894286Y-12861667D01*
X12903809Y-12823571D01*
X12913333Y-12804524D01*
X12922857Y-12795000D01*
X12941905Y-12785476D01*
X13132381Y-12785476D02*
X13151428Y-12785476D01*
X13170476Y-12795000D01*
X13180000Y-12804524D01*
X13189524Y-12823571D01*
X13199048Y-12861667D01*
X13199048Y-12909286D01*
X13189524Y-12947381D01*
X13180000Y-12966428D01*
X13170476Y-12975952D01*
X13151428Y-12985476D01*
X13132381Y-12985476D01*
X13113333Y-12975952D01*
X13103809Y-12966428D01*
X13094286Y-12947381D01*
X13084762Y-12909286D01*
X13084762Y-12861667D01*
X13094286Y-12823571D01*
X13103809Y-12804524D01*
X13113333Y-12795000D01*
X13132381Y-12785476D01*
X13284762Y-12985476D02*
X13284762Y-12852143D01*
X13284762Y-12871190D02*
X13294286Y-12861667D01*
X13313333Y-12852143D01*
X13341905Y-12852143D01*
X13360952Y-12861667D01*
X13370476Y-12880714D01*
X13370476Y-12985476D01*
X13370476Y-12880714D02*
X13380000Y-12861667D01*
X13399048Y-12852143D01*
X13427619Y-12852143D01*
X13446667Y-12861667D01*
X13456190Y-12880714D01*
X13456190Y-12985476D01*
X13551428Y-12985476D02*
X13551428Y-12852143D01*
X13551428Y-12871190D02*
X13560952Y-12861667D01*
X13580000Y-12852143D01*
X13608571Y-12852143D01*
X13627619Y-12861667D01*
X13637143Y-12880714D01*
X13637143Y-12985476D01*
X13637143Y-12880714D02*
X13646667Y-12861667D01*
X13665714Y-12852143D01*
X13694286Y-12852143D01*
X13713333Y-12861667D01*
X13722857Y-12880714D01*
X13722857Y-12985476D01*
X14113333Y-12775952D02*
X13941905Y-13033095D01*
X14370476Y-12785476D02*
X14389524Y-12785476D01*
X14408571Y-12795000D01*
X14418095Y-12804524D01*
X14427619Y-12823571D01*
X14437143Y-12861667D01*
X14437143Y-12909286D01*
X14427619Y-12947381D01*
X14418095Y-12966428D01*
X14408571Y-12975952D01*
X14389524Y-12985476D01*
X14370476Y-12985476D01*
X14351428Y-12975952D01*
X14341905Y-12966428D01*
X14332381Y-12947381D01*
X14322857Y-12909286D01*
X14322857Y-12861667D01*
X14332381Y-12823571D01*
X14341905Y-12804524D01*
X14351428Y-12795000D01*
X14370476Y-12785476D01*
X14522857Y-12966428D02*
X14532381Y-12975952D01*
X14522857Y-12985476D01*
X14513333Y-12975952D01*
X14522857Y-12966428D01*
X14522857Y-12985476D01*
X14656190Y-12785476D02*
X14675238Y-12785476D01*
X14694286Y-12795000D01*
X14703809Y-12804524D01*
X14713333Y-12823571D01*
X14722857Y-12861667D01*
X14722857Y-12909286D01*
X14713333Y-12947381D01*
X14703809Y-12966428D01*
X14694286Y-12975952D01*
X14675238Y-12985476D01*
X14656190Y-12985476D01*
X14637143Y-12975952D01*
X14627619Y-12966428D01*
X14618095Y-12947381D01*
X14608571Y-12909286D01*
X14608571Y-12861667D01*
X14618095Y-12823571D01*
X14627619Y-12804524D01*
X14637143Y-12795000D01*
X14656190Y-12785476D01*
X14789524Y-12785476D02*
X14913333Y-12785476D01*
X14846667Y-12861667D01*
X14875238Y-12861667D01*
X14894286Y-12871190D01*
X14903809Y-12880714D01*
X14913333Y-12899762D01*
X14913333Y-12947381D01*
X14903809Y-12966428D01*
X14894286Y-12975952D01*
X14875238Y-12985476D01*
X14818095Y-12985476D01*
X14799048Y-12975952D01*
X14789524Y-12966428D01*
X15103809Y-12985476D02*
X14989524Y-12985476D01*
X15046667Y-12985476D02*
X15046667Y-12785476D01*
X15027619Y-12814048D01*
X15008571Y-12833095D01*
X14989524Y-12842619D01*
X15284762Y-12785476D02*
X15189524Y-12785476D01*
X15180000Y-12880714D01*
X15189524Y-12871190D01*
X15208571Y-12861667D01*
X15256190Y-12861667D01*
X15275238Y-12871190D01*
X15284762Y-12880714D01*
X15294286Y-12899762D01*
X15294286Y-12947381D01*
X15284762Y-12966428D01*
X15275238Y-12975952D01*
X15256190Y-12985476D01*
X15208571Y-12985476D01*
X15189524Y-12975952D01*
X15180000Y-12966428D01*
X15370476Y-12785476D02*
X15370476Y-12823571D01*
X15446667Y-12785476D02*
X15446667Y-12823571D01*
X15741905Y-13061667D02*
X15732381Y-13052143D01*
X15713333Y-13023571D01*
X15703809Y-13004524D01*
X15694286Y-12975952D01*
X15684762Y-12928333D01*
X15684762Y-12890238D01*
X15694286Y-12842619D01*
X15703809Y-12814048D01*
X15713333Y-12795000D01*
X15732381Y-12766428D01*
X15741905Y-12756905D01*
X15846667Y-12871190D02*
X15827619Y-12861667D01*
X15818095Y-12852143D01*
X15808571Y-12833095D01*
X15808571Y-12823571D01*
X15818095Y-12804524D01*
X15827619Y-12795000D01*
X15846667Y-12785476D01*
X15884762Y-12785476D01*
X15903809Y-12795000D01*
X15913333Y-12804524D01*
X15922857Y-12823571D01*
X15922857Y-12833095D01*
X15913333Y-12852143D01*
X15903809Y-12861667D01*
X15884762Y-12871190D01*
X15846667Y-12871190D01*
X15827619Y-12880714D01*
X15818095Y-12890238D01*
X15808571Y-12909286D01*
X15808571Y-12947381D01*
X15818095Y-12966428D01*
X15827619Y-12975952D01*
X15846667Y-12985476D01*
X15884762Y-12985476D01*
X15903809Y-12975952D01*
X15913333Y-12966428D01*
X15922857Y-12947381D01*
X15922857Y-12909286D01*
X15913333Y-12890238D01*
X15903809Y-12880714D01*
X15884762Y-12871190D01*
X16160952Y-12985476D02*
X16160952Y-12785476D01*
X16246667Y-12985476D02*
X16246667Y-12880714D01*
X16237143Y-12861667D01*
X16218095Y-12852143D01*
X16189524Y-12852143D01*
X16170476Y-12861667D01*
X16160952Y-12871190D01*
X16370476Y-12985476D02*
X16351428Y-12975952D01*
X16341905Y-12966428D01*
X16332381Y-12947381D01*
X16332381Y-12890238D01*
X16341905Y-12871190D01*
X16351428Y-12861667D01*
X16370476Y-12852143D01*
X16399048Y-12852143D01*
X16418095Y-12861667D01*
X16427619Y-12871190D01*
X16437143Y-12890238D01*
X16437143Y-12947381D01*
X16427619Y-12966428D01*
X16418095Y-12975952D01*
X16399048Y-12985476D01*
X16370476Y-12985476D01*
X16551428Y-12985476D02*
X16532381Y-12975952D01*
X16522857Y-12956905D01*
X16522857Y-12785476D01*
X16703809Y-12975952D02*
X16684762Y-12985476D01*
X16646667Y-12985476D01*
X16627619Y-12975952D01*
X16618095Y-12956905D01*
X16618095Y-12880714D01*
X16627619Y-12861667D01*
X16646667Y-12852143D01*
X16684762Y-12852143D01*
X16703809Y-12861667D01*
X16713333Y-12880714D01*
X16713333Y-12899762D01*
X16618095Y-12918809D01*
X16789524Y-12975952D02*
X16808571Y-12985476D01*
X16846667Y-12985476D01*
X16865714Y-12975952D01*
X16875238Y-12956905D01*
X16875238Y-12947381D01*
X16865714Y-12928333D01*
X16846667Y-12918809D01*
X16818095Y-12918809D01*
X16799048Y-12909286D01*
X16789524Y-12890238D01*
X16789524Y-12880714D01*
X16799048Y-12861667D01*
X16818095Y-12852143D01*
X16846667Y-12852143D01*
X16865714Y-12861667D01*
X16941905Y-13061667D02*
X16951429Y-13052143D01*
X16970476Y-13023571D01*
X16980000Y-13004524D01*
X16989524Y-12975952D01*
X16999048Y-12928333D01*
X16999048Y-12890238D01*
X16989524Y-12842619D01*
X16980000Y-12814048D01*
X16970476Y-12795000D01*
X16951429Y-12766428D01*
X16941905Y-12756905D01*
D10*
X12170000Y-13159000D02*
G75*
G03*
X12170000Y-13159000I-50000J0D01*
G01*
D11*
X12532381Y-13249476D02*
X12418095Y-13249476D01*
X12475238Y-13249476D02*
X12475238Y-13049476D01*
X12456190Y-13078048D01*
X12437143Y-13097095D01*
X12418095Y-13106619D01*
X12618095Y-13230428D02*
X12627619Y-13239952D01*
X12618095Y-13249476D01*
X12608571Y-13239952D01*
X12618095Y-13230428D01*
X12618095Y-13249476D01*
X12751428Y-13049476D02*
X12770476Y-13049476D01*
X12789524Y-13059000D01*
X12799048Y-13068524D01*
X12808571Y-13087571D01*
X12818095Y-13125667D01*
X12818095Y-13173286D01*
X12808571Y-13211381D01*
X12799048Y-13230428D01*
X12789524Y-13239952D01*
X12770476Y-13249476D01*
X12751428Y-13249476D01*
X12732381Y-13239952D01*
X12722857Y-13230428D01*
X12713333Y-13211381D01*
X12703809Y-13173286D01*
X12703809Y-13125667D01*
X12713333Y-13087571D01*
X12722857Y-13068524D01*
X12732381Y-13059000D01*
X12751428Y-13049476D01*
X12941905Y-13049476D02*
X12960952Y-13049476D01*
X12980000Y-13059000D01*
X12989524Y-13068524D01*
X12999048Y-13087571D01*
X13008571Y-13125667D01*
X13008571Y-13173286D01*
X12999048Y-13211381D01*
X12989524Y-13230428D01*
X12980000Y-13239952D01*
X12960952Y-13249476D01*
X12941905Y-13249476D01*
X12922857Y-13239952D01*
X12913333Y-13230428D01*
X12903809Y-13211381D01*
X12894286Y-13173286D01*
X12894286Y-13125667D01*
X12903809Y-13087571D01*
X12913333Y-13068524D01*
X12922857Y-13059000D01*
X12941905Y-13049476D01*
X13132381Y-13049476D02*
X13151428Y-13049476D01*
X13170476Y-13059000D01*
X13180000Y-13068524D01*
X13189524Y-13087571D01*
X13199048Y-13125667D01*
X13199048Y-13173286D01*
X13189524Y-13211381D01*
X13180000Y-13230428D01*
X13170476Y-13239952D01*
X13151428Y-13249476D01*
X13132381Y-13249476D01*
X13113333Y-13239952D01*
X13103809Y-13230428D01*
X13094286Y-13211381D01*
X13084762Y-13173286D01*
X13084762Y-13125667D01*
X13094286Y-13087571D01*
X13103809Y-13068524D01*
X13113333Y-13059000D01*
X13132381Y-13049476D01*
X13284762Y-13249476D02*
X13284762Y-13116143D01*
X13284762Y-13135190D02*
X13294286Y-13125667D01*
X13313333Y-13116143D01*
X13341905Y-13116143D01*
X13360952Y-13125667D01*
X13370476Y-13144714D01*
X13370476Y-13249476D01*
X13370476Y-13144714D02*
X13380000Y-13125667D01*
X13399048Y-13116143D01*
X13427619Y-13116143D01*
X13446667Y-13125667D01*
X13456190Y-13144714D01*
X13456190Y-13249476D01*
X13551428Y-13249476D02*
X13551428Y-13116143D01*
X13551428Y-13135190D02*
X13560952Y-13125667D01*
X13580000Y-13116143D01*
X13608571Y-13116143D01*
X13627619Y-13125667D01*
X13637143Y-13144714D01*
X13637143Y-13249476D01*
X13637143Y-13144714D02*
X13646667Y-13125667D01*
X13665714Y-13116143D01*
X13694286Y-13116143D01*
X13713333Y-13125667D01*
X13722857Y-13144714D01*
X13722857Y-13249476D01*
X14113333Y-13039952D02*
X13941905Y-13297095D01*
X14370476Y-13049476D02*
X14389524Y-13049476D01*
X14408571Y-13059000D01*
X14418095Y-13068524D01*
X14427619Y-13087571D01*
X14437143Y-13125667D01*
X14437143Y-13173286D01*
X14427619Y-13211381D01*
X14418095Y-13230428D01*
X14408571Y-13239952D01*
X14389524Y-13249476D01*
X14370476Y-13249476D01*
X14351428Y-13239952D01*
X14341905Y-13230428D01*
X14332381Y-13211381D01*
X14322857Y-13173286D01*
X14322857Y-13125667D01*
X14332381Y-13087571D01*
X14341905Y-13068524D01*
X14351428Y-13059000D01*
X14370476Y-13049476D01*
X14522857Y-13230428D02*
X14532381Y-13239952D01*
X14522857Y-13249476D01*
X14513333Y-13239952D01*
X14522857Y-13230428D01*
X14522857Y-13249476D01*
X14656190Y-13049476D02*
X14675238Y-13049476D01*
X14694286Y-13059000D01*
X14703809Y-13068524D01*
X14713333Y-13087571D01*
X14722857Y-13125667D01*
X14722857Y-13173286D01*
X14713333Y-13211381D01*
X14703809Y-13230428D01*
X14694286Y-13239952D01*
X14675238Y-13249476D01*
X14656190Y-13249476D01*
X14637143Y-13239952D01*
X14627619Y-13230428D01*
X14618095Y-13211381D01*
X14608571Y-13173286D01*
X14608571Y-13125667D01*
X14618095Y-13087571D01*
X14627619Y-13068524D01*
X14637143Y-13059000D01*
X14656190Y-13049476D01*
X14789524Y-13049476D02*
X14913333Y-13049476D01*
X14846667Y-13125667D01*
X14875238Y-13125667D01*
X14894286Y-13135190D01*
X14903809Y-13144714D01*
X14913333Y-13163762D01*
X14913333Y-13211381D01*
X14903809Y-13230428D01*
X14894286Y-13239952D01*
X14875238Y-13249476D01*
X14818095Y-13249476D01*
X14799048Y-13239952D01*
X14789524Y-13230428D01*
X15008571Y-13249476D02*
X15046667Y-13249476D01*
X15065714Y-13239952D01*
X15075238Y-13230428D01*
X15094286Y-13201857D01*
X15103809Y-13163762D01*
X15103809Y-13087571D01*
X15094286Y-13068524D01*
X15084762Y-13059000D01*
X15065714Y-13049476D01*
X15027619Y-13049476D01*
X15008571Y-13059000D01*
X14999048Y-13068524D01*
X14989524Y-13087571D01*
X14989524Y-13135190D01*
X14999048Y-13154238D01*
X15008571Y-13163762D01*
X15027619Y-13173286D01*
X15065714Y-13173286D01*
X15084762Y-13163762D01*
X15094286Y-13154238D01*
X15103809Y-13135190D01*
X15275238Y-13116143D02*
X15275238Y-13249476D01*
X15227619Y-13039952D02*
X15180000Y-13182809D01*
X15303809Y-13182809D01*
X15370476Y-13049476D02*
X15370476Y-13087571D01*
X15446667Y-13049476D02*
X15446667Y-13087571D01*
X15741905Y-13325667D02*
X15732381Y-13316143D01*
X15713333Y-13287571D01*
X15703809Y-13268524D01*
X15694286Y-13239952D01*
X15684762Y-13192333D01*
X15684762Y-13154238D01*
X15694286Y-13106619D01*
X15703809Y-13078048D01*
X15713333Y-13059000D01*
X15732381Y-13030428D01*
X15741905Y-13020905D01*
X15808571Y-13068524D02*
X15818095Y-13059000D01*
X15837143Y-13049476D01*
X15884762Y-13049476D01*
X15903809Y-13059000D01*
X15913333Y-13068524D01*
X15922857Y-13087571D01*
X15922857Y-13106619D01*
X15913333Y-13135190D01*
X15799048Y-13249476D01*
X15922857Y-13249476D01*
X16037143Y-13135190D02*
X16018095Y-13125667D01*
X16008571Y-13116143D01*
X15999048Y-13097095D01*
X15999048Y-13087571D01*
X16008571Y-13068524D01*
X16018095Y-13059000D01*
X16037143Y-13049476D01*
X16075238Y-13049476D01*
X16094286Y-13059000D01*
X16103809Y-13068524D01*
X16113333Y-13087571D01*
X16113333Y-13097095D01*
X16103809Y-13116143D01*
X16094286Y-13125667D01*
X16075238Y-13135190D01*
X16037143Y-13135190D01*
X16018095Y-13144714D01*
X16008571Y-13154238D01*
X15999048Y-13173286D01*
X15999048Y-13211381D01*
X16008571Y-13230428D01*
X16018095Y-13239952D01*
X16037143Y-13249476D01*
X16075238Y-13249476D01*
X16094286Y-13239952D01*
X16103809Y-13230428D01*
X16113333Y-13211381D01*
X16113333Y-13173286D01*
X16103809Y-13154238D01*
X16094286Y-13144714D01*
X16075238Y-13135190D01*
X16351428Y-13249476D02*
X16351428Y-13049476D01*
X16437143Y-13249476D02*
X16437143Y-13144714D01*
X16427619Y-13125667D01*
X16408571Y-13116143D01*
X16380000Y-13116143D01*
X16360952Y-13125667D01*
X16351428Y-13135190D01*
X16560952Y-13249476D02*
X16541905Y-13239952D01*
X16532381Y-13230428D01*
X16522857Y-13211381D01*
X16522857Y-13154238D01*
X16532381Y-13135190D01*
X16541905Y-13125667D01*
X16560952Y-13116143D01*
X16589524Y-13116143D01*
X16608571Y-13125667D01*
X16618095Y-13135190D01*
X16627619Y-13154238D01*
X16627619Y-13211381D01*
X16618095Y-13230428D01*
X16608571Y-13239952D01*
X16589524Y-13249476D01*
X16560952Y-13249476D01*
X16741905Y-13249476D02*
X16722857Y-13239952D01*
X16713333Y-13220905D01*
X16713333Y-13049476D01*
X16894286Y-13239952D02*
X16875238Y-13249476D01*
X16837143Y-13249476D01*
X16818095Y-13239952D01*
X16808571Y-13220905D01*
X16808571Y-13144714D01*
X16818095Y-13125667D01*
X16837143Y-13116143D01*
X16875238Y-13116143D01*
X16894286Y-13125667D01*
X16903810Y-13144714D01*
X16903810Y-13163762D01*
X16808571Y-13182809D01*
X16980000Y-13239952D02*
X16999048Y-13249476D01*
X17037143Y-13249476D01*
X17056190Y-13239952D01*
X17065714Y-13220905D01*
X17065714Y-13211381D01*
X17056190Y-13192333D01*
X17037143Y-13182809D01*
X17008571Y-13182809D01*
X16989524Y-13173286D01*
X16980000Y-13154238D01*
X16980000Y-13144714D01*
X16989524Y-13125667D01*
X17008571Y-13116143D01*
X17037143Y-13116143D01*
X17056190Y-13125667D01*
X17132381Y-13325667D02*
X17141905Y-13316143D01*
X17160952Y-13287571D01*
X17170476Y-13268524D01*
X17180000Y-13239952D01*
X17189524Y-13192333D01*
X17189524Y-13154238D01*
X17180000Y-13106619D01*
X17170476Y-13078048D01*
X17160952Y-13059000D01*
X17141905Y-13030428D01*
X17132381Y-13020905D01*
D13*
X12110000Y-13363000D02*
X12110000Y-13483000D01*
X12050000Y-13423000D02*
X12170000Y-13423000D01*
D11*
X12532381Y-13513476D02*
X12418095Y-13513476D01*
X12475238Y-13513476D02*
X12475238Y-13313476D01*
X12456190Y-13342048D01*
X12437143Y-13361095D01*
X12418095Y-13370619D01*
X12618095Y-13494428D02*
X12627619Y-13503952D01*
X12618095Y-13513476D01*
X12608571Y-13503952D01*
X12618095Y-13494428D01*
X12618095Y-13513476D01*
X12703809Y-13332524D02*
X12713333Y-13323000D01*
X12732381Y-13313476D01*
X12780000Y-13313476D01*
X12799048Y-13323000D01*
X12808571Y-13332524D01*
X12818095Y-13351571D01*
X12818095Y-13370619D01*
X12808571Y-13399190D01*
X12694286Y-13513476D01*
X12818095Y-13513476D01*
X12941905Y-13313476D02*
X12960952Y-13313476D01*
X12980000Y-13323000D01*
X12989524Y-13332524D01*
X12999048Y-13351571D01*
X13008571Y-13389667D01*
X13008571Y-13437286D01*
X12999048Y-13475381D01*
X12989524Y-13494428D01*
X12980000Y-13503952D01*
X12960952Y-13513476D01*
X12941905Y-13513476D01*
X12922857Y-13503952D01*
X12913333Y-13494428D01*
X12903809Y-13475381D01*
X12894286Y-13437286D01*
X12894286Y-13389667D01*
X12903809Y-13351571D01*
X12913333Y-13332524D01*
X12922857Y-13323000D01*
X12941905Y-13313476D01*
X13132381Y-13313476D02*
X13151428Y-13313476D01*
X13170476Y-13323000D01*
X13180000Y-13332524D01*
X13189524Y-13351571D01*
X13199048Y-13389667D01*
X13199048Y-13437286D01*
X13189524Y-13475381D01*
X13180000Y-13494428D01*
X13170476Y-13503952D01*
X13151428Y-13513476D01*
X13132381Y-13513476D01*
X13113333Y-13503952D01*
X13103809Y-13494428D01*
X13094286Y-13475381D01*
X13084762Y-13437286D01*
X13084762Y-13389667D01*
X13094286Y-13351571D01*
X13103809Y-13332524D01*
X13113333Y-13323000D01*
X13132381Y-13313476D01*
X13284762Y-13513476D02*
X13284762Y-13380143D01*
X13284762Y-13399190D02*
X13294286Y-13389667D01*
X13313333Y-13380143D01*
X13341905Y-13380143D01*
X13360952Y-13389667D01*
X13370476Y-13408714D01*
X13370476Y-13513476D01*
X13370476Y-13408714D02*
X13380000Y-13389667D01*
X13399048Y-13380143D01*
X13427619Y-13380143D01*
X13446667Y-13389667D01*
X13456190Y-13408714D01*
X13456190Y-13513476D01*
X13551428Y-13513476D02*
X13551428Y-13380143D01*
X13551428Y-13399190D02*
X13560952Y-13389667D01*
X13580000Y-13380143D01*
X13608571Y-13380143D01*
X13627619Y-13389667D01*
X13637143Y-13408714D01*
X13637143Y-13513476D01*
X13637143Y-13408714D02*
X13646667Y-13389667D01*
X13665714Y-13380143D01*
X13694286Y-13380143D01*
X13713333Y-13389667D01*
X13722857Y-13408714D01*
X13722857Y-13513476D01*
X14113333Y-13303952D02*
X13941905Y-13561095D01*
X14370476Y-13313476D02*
X14389524Y-13313476D01*
X14408571Y-13323000D01*
X14418095Y-13332524D01*
X14427619Y-13351571D01*
X14437143Y-13389667D01*
X14437143Y-13437286D01*
X14427619Y-13475381D01*
X14418095Y-13494428D01*
X14408571Y-13503952D01*
X14389524Y-13513476D01*
X14370476Y-13513476D01*
X14351428Y-13503952D01*
X14341905Y-13494428D01*
X14332381Y-13475381D01*
X14322857Y-13437286D01*
X14322857Y-13389667D01*
X14332381Y-13351571D01*
X14341905Y-13332524D01*
X14351428Y-13323000D01*
X14370476Y-13313476D01*
X14522857Y-13494428D02*
X14532381Y-13503952D01*
X14522857Y-13513476D01*
X14513333Y-13503952D01*
X14522857Y-13494428D01*
X14522857Y-13513476D01*
X14656190Y-13313476D02*
X14675238Y-13313476D01*
X14694286Y-13323000D01*
X14703809Y-13332524D01*
X14713333Y-13351571D01*
X14722857Y-13389667D01*
X14722857Y-13437286D01*
X14713333Y-13475381D01*
X14703809Y-13494428D01*
X14694286Y-13503952D01*
X14675238Y-13513476D01*
X14656190Y-13513476D01*
X14637143Y-13503952D01*
X14627619Y-13494428D01*
X14618095Y-13475381D01*
X14608571Y-13437286D01*
X14608571Y-13389667D01*
X14618095Y-13351571D01*
X14627619Y-13332524D01*
X14637143Y-13323000D01*
X14656190Y-13313476D01*
X14894286Y-13380143D02*
X14894286Y-13513476D01*
X14846667Y-13303952D02*
X14799048Y-13446809D01*
X14922857Y-13446809D01*
X14980000Y-13313476D02*
X15113333Y-13313476D01*
X15027619Y-13513476D01*
X15180000Y-13332524D02*
X15189524Y-13323000D01*
X15208571Y-13313476D01*
X15256190Y-13313476D01*
X15275238Y-13323000D01*
X15284762Y-13332524D01*
X15294286Y-13351571D01*
X15294286Y-13370619D01*
X15284762Y-13399190D01*
X15170476Y-13513476D01*
X15294286Y-13513476D01*
X15370476Y-13313476D02*
X15370476Y-13351571D01*
X15446667Y-13313476D02*
X15446667Y-13351571D01*
X15741905Y-13589667D02*
X15732381Y-13580143D01*
X15713333Y-13551571D01*
X15703809Y-13532524D01*
X15694286Y-13503952D01*
X15684762Y-13456333D01*
X15684762Y-13418238D01*
X15694286Y-13370619D01*
X15703809Y-13342048D01*
X15713333Y-13323000D01*
X15732381Y-13294428D01*
X15741905Y-13284905D01*
X15913333Y-13313476D02*
X15818095Y-13313476D01*
X15808571Y-13408714D01*
X15818095Y-13399190D01*
X15837143Y-13389667D01*
X15884762Y-13389667D01*
X15903809Y-13399190D01*
X15913333Y-13408714D01*
X15922857Y-13427762D01*
X15922857Y-13475381D01*
X15913333Y-13494428D01*
X15903809Y-13503952D01*
X15884762Y-13513476D01*
X15837143Y-13513476D01*
X15818095Y-13503952D01*
X15808571Y-13494428D01*
X16160952Y-13513476D02*
X16160952Y-13313476D01*
X16246667Y-13513476D02*
X16246667Y-13408714D01*
X16237143Y-13389667D01*
X16218095Y-13380143D01*
X16189524Y-13380143D01*
X16170476Y-13389667D01*
X16160952Y-13399190D01*
X16370476Y-13513476D02*
X16351428Y-13503952D01*
X16341905Y-13494428D01*
X16332381Y-13475381D01*
X16332381Y-13418238D01*
X16341905Y-13399190D01*
X16351428Y-13389667D01*
X16370476Y-13380143D01*
X16399048Y-13380143D01*
X16418095Y-13389667D01*
X16427619Y-13399190D01*
X16437143Y-13418238D01*
X16437143Y-13475381D01*
X16427619Y-13494428D01*
X16418095Y-13503952D01*
X16399048Y-13513476D01*
X16370476Y-13513476D01*
X16551428Y-13513476D02*
X16532381Y-13503952D01*
X16522857Y-13484905D01*
X16522857Y-13313476D01*
X16703809Y-13503952D02*
X16684762Y-13513476D01*
X16646667Y-13513476D01*
X16627619Y-13503952D01*
X16618095Y-13484905D01*
X16618095Y-13408714D01*
X16627619Y-13389667D01*
X16646667Y-13380143D01*
X16684762Y-13380143D01*
X16703809Y-13389667D01*
X16713333Y-13408714D01*
X16713333Y-13427762D01*
X16618095Y-13446809D01*
X16789524Y-13503952D02*
X16808571Y-13513476D01*
X16846667Y-13513476D01*
X16865714Y-13503952D01*
X16875238Y-13484905D01*
X16875238Y-13475381D01*
X16865714Y-13456333D01*
X16846667Y-13446809D01*
X16818095Y-13446809D01*
X16799048Y-13437286D01*
X16789524Y-13418238D01*
X16789524Y-13408714D01*
X16799048Y-13389667D01*
X16818095Y-13380143D01*
X16846667Y-13380143D01*
X16865714Y-13389667D01*
X16941905Y-13589667D02*
X16951429Y-13580143D01*
X16970476Y-13551571D01*
X16980000Y-13532524D01*
X16989524Y-13503952D01*
X16999048Y-13456333D01*
X16999048Y-13418238D01*
X16989524Y-13370619D01*
X16980000Y-13342048D01*
X16970476Y-13323000D01*
X16951429Y-13294428D01*
X16941905Y-13284905D01*
D14*
X12149498Y-13736498D02*
X12149498Y-13637502D01*
X12050502Y-13637502D01*
X12050502Y-13736498D01*
X12149498Y-13736498D01*
D11*
X12532381Y-13777476D02*
X12418095Y-13777476D01*
X12475238Y-13777476D02*
X12475238Y-13577476D01*
X12456190Y-13606048D01*
X12437143Y-13625095D01*
X12418095Y-13634619D01*
X12618095Y-13758428D02*
X12627619Y-13767952D01*
X12618095Y-13777476D01*
X12608571Y-13767952D01*
X12618095Y-13758428D01*
X12618095Y-13777476D01*
X12799048Y-13644143D02*
X12799048Y-13777476D01*
X12751428Y-13567952D02*
X12703809Y-13710809D01*
X12827619Y-13710809D01*
X12941905Y-13577476D02*
X12960952Y-13577476D01*
X12980000Y-13587000D01*
X12989524Y-13596524D01*
X12999048Y-13615571D01*
X13008571Y-13653667D01*
X13008571Y-13701286D01*
X12999048Y-13739381D01*
X12989524Y-13758428D01*
X12980000Y-13767952D01*
X12960952Y-13777476D01*
X12941905Y-13777476D01*
X12922857Y-13767952D01*
X12913333Y-13758428D01*
X12903809Y-13739381D01*
X12894286Y-13701286D01*
X12894286Y-13653667D01*
X12903809Y-13615571D01*
X12913333Y-13596524D01*
X12922857Y-13587000D01*
X12941905Y-13577476D01*
X13132381Y-13577476D02*
X13151428Y-13577476D01*
X13170476Y-13587000D01*
X13180000Y-13596524D01*
X13189524Y-13615571D01*
X13199048Y-13653667D01*
X13199048Y-13701286D01*
X13189524Y-13739381D01*
X13180000Y-13758428D01*
X13170476Y-13767952D01*
X13151428Y-13777476D01*
X13132381Y-13777476D01*
X13113333Y-13767952D01*
X13103809Y-13758428D01*
X13094286Y-13739381D01*
X13084762Y-13701286D01*
X13084762Y-13653667D01*
X13094286Y-13615571D01*
X13103809Y-13596524D01*
X13113333Y-13587000D01*
X13132381Y-13577476D01*
X13284762Y-13777476D02*
X13284762Y-13644143D01*
X13284762Y-13663190D02*
X13294286Y-13653667D01*
X13313333Y-13644143D01*
X13341905Y-13644143D01*
X13360952Y-13653667D01*
X13370476Y-13672714D01*
X13370476Y-13777476D01*
X13370476Y-13672714D02*
X13380000Y-13653667D01*
X13399048Y-13644143D01*
X13427619Y-13644143D01*
X13446667Y-13653667D01*
X13456190Y-13672714D01*
X13456190Y-13777476D01*
X13551428Y-13777476D02*
X13551428Y-13644143D01*
X13551428Y-13663190D02*
X13560952Y-13653667D01*
X13580000Y-13644143D01*
X13608571Y-13644143D01*
X13627619Y-13653667D01*
X13637143Y-13672714D01*
X13637143Y-13777476D01*
X13637143Y-13672714D02*
X13646667Y-13653667D01*
X13665714Y-13644143D01*
X13694286Y-13644143D01*
X13713333Y-13653667D01*
X13722857Y-13672714D01*
X13722857Y-13777476D01*
X14113333Y-13567952D02*
X13941905Y-13825095D01*
X14370476Y-13577476D02*
X14389524Y-13577476D01*
X14408571Y-13587000D01*
X14418095Y-13596524D01*
X14427619Y-13615571D01*
X14437143Y-13653667D01*
X14437143Y-13701286D01*
X14427619Y-13739381D01*
X14418095Y-13758428D01*
X14408571Y-13767952D01*
X14389524Y-13777476D01*
X14370476Y-13777476D01*
X14351428Y-13767952D01*
X14341905Y-13758428D01*
X14332381Y-13739381D01*
X14322857Y-13701286D01*
X14322857Y-13653667D01*
X14332381Y-13615571D01*
X14341905Y-13596524D01*
X14351428Y-13587000D01*
X14370476Y-13577476D01*
X14522857Y-13758428D02*
X14532381Y-13767952D01*
X14522857Y-13777476D01*
X14513333Y-13767952D01*
X14522857Y-13758428D01*
X14522857Y-13777476D01*
X14656190Y-13577476D02*
X14675238Y-13577476D01*
X14694286Y-13587000D01*
X14703809Y-13596524D01*
X14713333Y-13615571D01*
X14722857Y-13653667D01*
X14722857Y-13701286D01*
X14713333Y-13739381D01*
X14703809Y-13758428D01*
X14694286Y-13767952D01*
X14675238Y-13777476D01*
X14656190Y-13777476D01*
X14637143Y-13767952D01*
X14627619Y-13758428D01*
X14618095Y-13739381D01*
X14608571Y-13701286D01*
X14608571Y-13653667D01*
X14618095Y-13615571D01*
X14627619Y-13596524D01*
X14637143Y-13587000D01*
X14656190Y-13577476D01*
X14903809Y-13577476D02*
X14808571Y-13577476D01*
X14799048Y-13672714D01*
X14808571Y-13663190D01*
X14827619Y-13653667D01*
X14875238Y-13653667D01*
X14894286Y-13663190D01*
X14903809Y-13672714D01*
X14913333Y-13691762D01*
X14913333Y-13739381D01*
X14903809Y-13758428D01*
X14894286Y-13767952D01*
X14875238Y-13777476D01*
X14827619Y-13777476D01*
X14808571Y-13767952D01*
X14799048Y-13758428D01*
X15094286Y-13577476D02*
X14999048Y-13577476D01*
X14989524Y-13672714D01*
X14999048Y-13663190D01*
X15018095Y-13653667D01*
X15065714Y-13653667D01*
X15084762Y-13663190D01*
X15094286Y-13672714D01*
X15103809Y-13691762D01*
X15103809Y-13739381D01*
X15094286Y-13758428D01*
X15084762Y-13767952D01*
X15065714Y-13777476D01*
X15018095Y-13777476D01*
X14999048Y-13767952D01*
X14989524Y-13758428D01*
X15294286Y-13777476D02*
X15180000Y-13777476D01*
X15237143Y-13777476D02*
X15237143Y-13577476D01*
X15218095Y-13606048D01*
X15199048Y-13625095D01*
X15180000Y-13634619D01*
X15370476Y-13577476D02*
X15370476Y-13615571D01*
X15446667Y-13577476D02*
X15446667Y-13615571D01*
X15741905Y-13853667D02*
X15732381Y-13844143D01*
X15713333Y-13815571D01*
X15703809Y-13796524D01*
X15694286Y-13767952D01*
X15684762Y-13720333D01*
X15684762Y-13682238D01*
X15694286Y-13634619D01*
X15703809Y-13606048D01*
X15713333Y-13587000D01*
X15732381Y-13558428D01*
X15741905Y-13548905D01*
X15799048Y-13577476D02*
X15922857Y-13577476D01*
X15856190Y-13653667D01*
X15884762Y-13653667D01*
X15903809Y-13663190D01*
X15913333Y-13672714D01*
X15922857Y-13691762D01*
X15922857Y-13739381D01*
X15913333Y-13758428D01*
X15903809Y-13767952D01*
X15884762Y-13777476D01*
X15827619Y-13777476D01*
X15808571Y-13767952D01*
X15799048Y-13758428D01*
X16160952Y-13777476D02*
X16160952Y-13577476D01*
X16246667Y-13777476D02*
X16246667Y-13672714D01*
X16237143Y-13653667D01*
X16218095Y-13644143D01*
X16189524Y-13644143D01*
X16170476Y-13653667D01*
X16160952Y-13663190D01*
X16370476Y-13777476D02*
X16351428Y-13767952D01*
X16341905Y-13758428D01*
X16332381Y-13739381D01*
X16332381Y-13682238D01*
X16341905Y-13663190D01*
X16351428Y-13653667D01*
X16370476Y-13644143D01*
X16399048Y-13644143D01*
X16418095Y-13653667D01*
X16427619Y-13663190D01*
X16437143Y-13682238D01*
X16437143Y-13739381D01*
X16427619Y-13758428D01*
X16418095Y-13767952D01*
X16399048Y-13777476D01*
X16370476Y-13777476D01*
X16551428Y-13777476D02*
X16532381Y-13767952D01*
X16522857Y-13748905D01*
X16522857Y-13577476D01*
X16703809Y-13767952D02*
X16684762Y-13777476D01*
X16646667Y-13777476D01*
X16627619Y-13767952D01*
X16618095Y-13748905D01*
X16618095Y-13672714D01*
X16627619Y-13653667D01*
X16646667Y-13644143D01*
X16684762Y-13644143D01*
X16703809Y-13653667D01*
X16713333Y-13672714D01*
X16713333Y-13691762D01*
X16618095Y-13710809D01*
X16789524Y-13767952D02*
X16808571Y-13777476D01*
X16846667Y-13777476D01*
X16865714Y-13767952D01*
X16875238Y-13748905D01*
X16875238Y-13739381D01*
X16865714Y-13720333D01*
X16846667Y-13710809D01*
X16818095Y-13710809D01*
X16799048Y-13701286D01*
X16789524Y-13682238D01*
X16789524Y-13672714D01*
X16799048Y-13653667D01*
X16818095Y-13644143D01*
X16846667Y-13644143D01*
X16865714Y-13653667D01*
X16941905Y-13853667D02*
X16951429Y-13844143D01*
X16970476Y-13815571D01*
X16980000Y-13796524D01*
X16989524Y-13767952D01*
X16999048Y-13720333D01*
X16999048Y-13682238D01*
X16989524Y-13634619D01*
X16980000Y-13606048D01*
X16970476Y-13587000D01*
X16951429Y-13558428D01*
X16941905Y-13548905D01*
M02*
