G04 #@! TF.GenerationSoftware,KiCad,Pcbnew,(6.0.7)*
G04 #@! TF.CreationDate,2022-12-11T11:01:38+01:00*
G04 #@! TF.ProjectId,CT_Clamp,43545f43-6c61-46d7-902e-6b696361645f,rev?*
G04 #@! TF.SameCoordinates,Original*
G04 #@! TF.FileFunction,Copper,L1,Top*
G04 #@! TF.FilePolarity,Positive*
%FSLAX46Y46*%
G04 Gerber Fmt 4.6, Leading zero omitted, Abs format (unit mm)*
G04 Created by KiCad (PCBNEW (6.0.7)) date 2022-12-11 11:01:38*
%MOMM*%
%LPD*%
G01*
G04 APERTURE LIST*
G04 Aperture macros list*
%AMRoundRect*
0 Rectangle with rounded corners*
0 $1 Rounding radius*
0 $2 $3 $4 $5 $6 $7 $8 $9 X,Y pos of 4 corners*
0 Add a 4 corners polygon primitive as box body*
4,1,4,$2,$3,$4,$5,$6,$7,$8,$9,$2,$3,0*
0 Add four circle primitives for the rounded corners*
1,1,$1+$1,$2,$3*
1,1,$1+$1,$4,$5*
1,1,$1+$1,$6,$7*
1,1,$1+$1,$8,$9*
0 Add four rect primitives between the rounded corners*
20,1,$1+$1,$2,$3,$4,$5,0*
20,1,$1+$1,$4,$5,$6,$7,0*
20,1,$1+$1,$6,$7,$8,$9,0*
20,1,$1+$1,$8,$9,$2,$3,0*%
G04 Aperture macros list end*
G04 #@! TA.AperFunction,ComponentPad*
%ADD10C,1.600000*%
G04 #@! TD*
G04 #@! TA.AperFunction,ComponentPad*
%ADD11O,1.600000X1.600000*%
G04 #@! TD*
G04 #@! TA.AperFunction,ComponentPad*
%ADD12R,2.000000X2.300000*%
G04 #@! TD*
G04 #@! TA.AperFunction,ComponentPad*
%ADD13C,2.300000*%
G04 #@! TD*
G04 #@! TA.AperFunction,ComponentPad*
%ADD14R,2.000000X2.000000*%
G04 #@! TD*
G04 #@! TA.AperFunction,ComponentPad*
%ADD15O,2.000000X1.600000*%
G04 #@! TD*
G04 #@! TA.AperFunction,ComponentPad*
%ADD16RoundRect,0.250000X-0.650000X-1.550000X0.650000X-1.550000X0.650000X1.550000X-0.650000X1.550000X0*%
G04 #@! TD*
G04 #@! TA.AperFunction,ComponentPad*
%ADD17C,1.700000*%
G04 #@! TD*
G04 #@! TA.AperFunction,ComponentPad*
%ADD18RoundRect,0.450000X-0.450000X-1.350000X0.450000X-1.350000X0.450000X1.350000X-0.450000X1.350000X0*%
G04 #@! TD*
G04 #@! TA.AperFunction,ComponentPad*
%ADD19R,1.600000X1.600000*%
G04 #@! TD*
G04 #@! TA.AperFunction,ComponentPad*
%ADD20RoundRect,0.250000X-0.750000X-1.550000X0.750000X-1.550000X0.750000X1.550000X-0.750000X1.550000X0*%
G04 #@! TD*
G04 #@! TA.AperFunction,ComponentPad*
%ADD21O,2.000000X3.600000*%
G04 #@! TD*
G04 #@! TA.AperFunction,ComponentPad*
%ADD22R,1.700000X1.700000*%
G04 #@! TD*
G04 #@! TA.AperFunction,ComponentPad*
%ADD23O,1.700000X1.700000*%
G04 #@! TD*
G04 #@! TA.AperFunction,ComponentPad*
%ADD24O,1.800000X3.600000*%
G04 #@! TD*
G04 #@! TA.AperFunction,Conductor*
%ADD25C,0.350000*%
G04 #@! TD*
G04 #@! TA.AperFunction,Conductor*
%ADD26C,1.500000*%
G04 #@! TD*
G04 APERTURE END LIST*
D10*
X128250000Y-98000000D03*
D11*
X128250000Y-87840000D03*
D10*
X127670000Y-82750000D03*
D11*
X137830000Y-82750000D03*
D12*
X158000000Y-103750000D03*
D13*
X163000000Y-103750000D03*
X152800000Y-74350000D03*
X168200000Y-74350000D03*
D14*
X124380225Y-80110000D03*
D15*
X124380225Y-82650000D03*
X124380225Y-85190000D03*
X124380225Y-87730000D03*
X124380225Y-90270000D03*
X124380225Y-92810000D03*
X124380225Y-95350000D03*
X124380225Y-97890000D03*
X147240225Y-97890000D03*
X147240225Y-95350000D03*
X147240225Y-92810000D03*
X147240225Y-90270000D03*
X147240225Y-87730000D03*
X147240225Y-85190000D03*
X147240225Y-82650000D03*
X147240225Y-80110000D03*
D16*
X125750000Y-112750000D03*
D17*
X126750000Y-114223200D03*
X129250000Y-114223200D03*
D18*
X129250000Y-112750000D03*
D17*
X131750000Y-114223200D03*
D18*
X132750000Y-112750000D03*
D10*
X131750000Y-87920000D03*
D11*
X131750000Y-98080000D03*
D19*
X137750000Y-88000000D03*
D10*
X140250000Y-88000000D03*
D20*
X155500000Y-112750000D03*
D21*
X160500000Y-112750000D03*
X165500000Y-112750000D03*
D22*
X134625000Y-106250000D03*
D23*
X134625000Y-103710000D03*
X134625000Y-101170000D03*
D17*
X139250000Y-114274000D03*
D16*
X138750000Y-112750000D03*
D17*
X141750000Y-114223200D03*
D24*
X142250000Y-112750000D03*
D25*
X131750000Y-87920000D02*
X137670000Y-87920000D01*
X137750000Y-82830000D02*
X137830000Y-82750000D01*
X137670000Y-87920000D02*
X137750000Y-88000000D01*
X128250000Y-87840000D02*
X131670000Y-87840000D01*
X137750000Y-88000000D02*
X137750000Y-82830000D01*
X131670000Y-87840000D02*
X131750000Y-87920000D01*
X130000000Y-112000000D02*
X129250000Y-112750000D01*
X130000000Y-95750000D02*
X130000000Y-112000000D01*
X128250000Y-87840000D02*
X128250000Y-94000000D01*
X128250000Y-94000000D02*
X130000000Y-95750000D01*
X134625000Y-103710000D02*
X133540000Y-103710000D01*
X132750000Y-104500000D02*
X132750000Y-112750000D01*
X133540000Y-103710000D02*
X132750000Y-104500000D01*
X125750000Y-108000000D02*
X125750000Y-112750000D01*
X122250000Y-84780225D02*
X122250000Y-104500000D01*
X122250000Y-104500000D02*
X125750000Y-108000000D01*
X127670000Y-82750000D02*
X124480225Y-82750000D01*
X124380225Y-82650000D02*
X122250000Y-84780225D01*
X124480225Y-82750000D02*
X124380225Y-82650000D01*
D26*
X128140000Y-97890000D02*
X128250000Y-98000000D01*
X124380225Y-97890000D02*
X128140000Y-97890000D01*
D25*
X147250000Y-106250000D02*
X152250000Y-111250000D01*
X165500000Y-115750000D02*
X165500000Y-112750000D01*
X164500000Y-116750000D02*
X165500000Y-115750000D01*
X134625000Y-106250000D02*
X147250000Y-106250000D01*
X154000000Y-116750000D02*
X164500000Y-116750000D01*
X152250000Y-115000000D02*
X154000000Y-116750000D01*
X152250000Y-111250000D02*
X152250000Y-115000000D01*
M02*
