M48
; DRILL file {KiCad (6.0.7)} date Sun Dec 11 11:01:51 2022
; FORMAT={-:-/ absolute / metric / decimal}
; #@! TF.CreationDate,2022-12-11T11:01:51+01:00
; #@! TF.GenerationSoftware,Kicad,Pcbnew,(6.0.7)
; #@! TF.FileFunction,Plated,1,2,PTH
FMAT,2
METRIC
; #@! TA.AperFunction,Plated,PTH,ComponentDrill
T1C0.800
; #@! TA.AperFunction,Plated,PTH,ComponentDrill
T2C1.000
; #@! TA.AperFunction,Plated,PTH,ComponentDrill
T3C1.200
; #@! TA.AperFunction,Plated,PTH,ComponentDrill
T4C1.400
%
G90
G05
T1
X127.67Y-82.75
X128.25Y-87.84
X128.25Y-98.0
X131.75Y-87.92
X131.75Y-98.08
X137.75Y-88.0
X137.83Y-82.75
X140.25Y-88.0
T2
X124.38Y-80.11
X124.38Y-82.65
X124.38Y-85.19
X124.38Y-87.73
X124.38Y-90.27
X124.38Y-92.81
X124.38Y-95.35
X124.38Y-97.89
X126.75Y-114.223
X129.25Y-114.223
X131.75Y-114.223
X134.625Y-101.17
X134.625Y-103.71
X134.625Y-106.25
X139.25Y-114.274
X141.75Y-114.223
X147.24Y-80.11
X147.24Y-82.65
X147.24Y-85.19
X147.24Y-87.73
X147.24Y-90.27
X147.24Y-92.81
X147.24Y-95.35
X147.24Y-97.89
X152.8Y-74.35
X158.0Y-103.75
X163.0Y-103.75
X168.2Y-74.35
T3
X125.75Y-112.75
X129.25Y-112.75
X132.75Y-112.75
X138.75Y-112.75
X142.25Y-112.75
T4
X155.5Y-112.75
X160.5Y-112.75
X165.5Y-112.75
T0
M30
